# xmcd
#
# Track frame offsets:
#	150
#	14072
#	26399
#	35744
#	49658
#	65024
#	80995
#	96754
#	107429
#	120379
#	133781
#	144775
#	158403
#	168071
#	180954
#
# Disc length: 2592 seconds
# Revision: 3
# Processed by: cddbd v1.5.2PL0 Copyright (c) Steve Scherf et al.
# Submitted via: dBpowerAMP V12.0
#
DISCID=b80a1e0f
DTITLE=Teodoro and Sampaio - Feito Para Dança
DYEAR=2005
DGENRE=Sertanejo
TTITLE0=Um Pouco Gaúcho
TTITLE1=Põe e Tira
TTITLE2=Amizade Gaúcha
TTITLE3=Meu Amor Brigou Comigo
TTITLE4=Desafio do Grenal
TTITLE5=Maria Pensão
TTITLE6=Terra dos Pampas
TTITLE7=Namorar e Chupar Cana
TTITLE8=Querência Amada
TTITLE9=Pé de Pano
TTITLE10=Gaúcho de Passo Fundo
TTITLE11=Sonambolismo
TTITLE12=O Amor é Cego
TTITLE13=Vivendo Longe do Meu Bem
TTITLE14=Ricardão
EXTD=
EXTT0=
EXTT1=
EXTT2=
EXTT3=
EXTT4=
EXTT5=
EXTT6=
EXTT7=
EXTT8=
EXTT9=
EXTT10=
EXTT11=
EXTT12=
EXTT13=
EXTT14=
PLAYORDER=
